<svg width="57" height="45" viewBox="0 0 57 45" fill="none" xmlns="http://www.w3.org/2000/svg">
<path d="M25.3 23.3999C25.8891 23.3999 26.3666 22.9224 26.3666 22.3333C26.3666 21.7442 25.8891 21.2666 25.3 21.2666C24.7109 21.2666 24.2333 21.7442 24.2333 22.3333C24.2333 22.9224 24.7109 23.3999 25.3 23.3999Z" stroke="white" stroke-width="2" stroke-linecap="round" stroke-linejoin="round"/>
<path d="M37.0333 23.3999C37.6224 23.3999 38.1 22.9224 38.1 22.3333C38.1 21.7442 37.6224 21.2666 37.0333 21.2666C36.4442 21.2666 35.9666 21.7442 35.9666 22.3333C35.9666 22.9224 36.4442 23.3999 37.0333 23.3999Z" stroke="white" stroke-width="2" stroke-linecap="round" stroke-linejoin="round"/>
<path d="M16.7667 1H21.0333L23.892 15.2827C23.9895 15.7738 24.2567 16.2149 24.6467 16.5289C25.0367 16.8428 25.5247 17.0096 26.0253 17H36.3933C36.8939 17.0096 37.3819 16.8428 37.7719 16.5289C38.162 16.2149 38.4291 15.7738 38.5267 15.2827L40.2333 6.33333H22.1" stroke="white" stroke-width="2" stroke-linecap="round" stroke-linejoin="round"/>
<path d="M9.42614 34.4H8.19318C8.12027 34.0454 7.99266 33.7338 7.81037 33.4654C7.63139 33.1969 7.41264 32.9715 7.15412 32.7892C6.89891 32.6036 6.61553 32.4644 6.30398 32.3716C5.99242 32.2788 5.66761 32.2324 5.32955 32.2324C4.71307 32.2324 4.15459 32.3882 3.65412 32.6997C3.15696 33.0113 2.76089 33.4703 2.46591 34.0769C2.17424 34.6834 2.02841 35.4275 2.02841 36.3091C2.02841 37.1907 2.17424 37.9348 2.46591 38.5414C2.76089 39.1479 3.15696 39.6069 3.65412 39.9185C4.15459 40.23 4.71307 40.3858 5.32955 40.3858C5.66761 40.3858 5.99242 40.3394 6.30398 40.2466C6.61553 40.1538 6.89891 40.0163 7.15412 39.834C7.41264 39.6484 7.63139 39.4213 7.81037 39.1529C7.99266 38.8811 8.12027 38.5695 8.19318 38.2182H9.42614C9.33333 38.7386 9.1643 39.2042 8.91903 39.6152C8.67377 40.0262 8.36885 40.3759 8.00426 40.6642C7.63968 40.9493 7.23035 41.1664 6.77628 41.3155C6.32552 41.4647 5.84328 41.5392 5.32955 41.5392C4.46117 41.5392 3.68892 41.3271 3.01278 40.9029C2.33665 40.4786 1.80469 39.8754 1.4169 39.0932C1.02912 38.311 0.835227 37.383 0.835227 36.3091C0.835227 35.2353 1.02912 34.3072 1.4169 33.525C1.80469 32.7428 2.33665 32.1396 3.01278 31.7154C3.68892 31.2911 4.46117 31.079 5.32955 31.079C5.84328 31.079 6.32552 31.1536 6.77628 31.3027C7.23035 31.4519 7.63968 31.6706 8.00426 31.959C8.36885 32.244 8.67377 32.592 8.91903 33.003C9.1643 33.4107 9.33333 33.8763 9.42614 34.4ZM13.5066 41.579C13.0227 41.579 12.5835 41.4879 12.1891 41.3056C11.7947 41.12 11.4815 40.8531 11.2495 40.5051C11.0175 40.1538 10.9015 39.7296 10.9015 39.2324C10.9015 38.7949 10.9876 38.4403 11.16 38.1685C11.3323 37.8934 11.5627 37.678 11.851 37.5222C12.1394 37.3664 12.4576 37.2504 12.8056 37.1742C13.1569 37.0946 13.5099 37.0317 13.8645 36.9853C14.3285 36.9256 14.7047 36.8808 14.9931 36.851C15.2847 36.8179 15.4969 36.7632 15.6294 36.687C15.7653 36.6107 15.8333 36.4781 15.8333 36.2892V36.2495C15.8333 35.7589 15.699 35.3778 15.4306 35.106C15.1654 34.8342 14.7627 34.6983 14.2225 34.6983C13.6623 34.6983 13.2232 34.821 12.905 35.0662C12.5868 35.3115 12.3631 35.5733 12.2338 35.8517L11.1202 35.454C11.3191 34.99 11.5842 34.6287 11.9157 34.3702C12.2504 34.1084 12.615 33.9261 13.0094 33.8233C13.4071 33.7173 13.7982 33.6642 14.1827 33.6642C14.428 33.6642 14.7097 33.6941 15.0279 33.7537C15.3494 33.8101 15.6593 33.9277 15.9576 34.1067C16.2592 34.2857 16.5094 34.5558 16.7083 34.9171C16.9071 35.2783 17.0066 35.7622 17.0066 36.3688V41.4H15.8333V40.3659H15.7736C15.6941 40.5317 15.5615 40.709 15.3759 40.8979C15.1903 41.0868 14.9434 41.2476 14.6351 41.3801C14.3269 41.5127 13.9507 41.579 13.5066 41.579ZM13.6855 40.525C14.1496 40.525 14.5407 40.4339 14.8588 40.2516C15.1803 40.0693 15.4223 39.834 15.5847 39.5456C15.7504 39.2573 15.8333 38.954 15.8333 38.6358V37.562C15.7836 37.6216 15.6742 37.6763 15.5051 37.726C15.3394 37.7724 15.1472 37.8138 14.9284 37.8503C14.713 37.8835 14.5025 37.9133 14.2971 37.9398C14.0949 37.963 13.9308 37.9829 13.8049 37.9995C13.4999 38.0392 13.2149 38.1039 12.9498 38.1933C12.6879 38.2795 12.4758 38.4104 12.3134 38.5861C12.1543 38.7585 12.0748 38.9938 12.0748 39.2921C12.0748 39.6997 12.2256 40.008 12.5272 40.2168C12.8321 40.4223 13.2182 40.525 13.6855 40.525ZM19.1481 41.4V33.7637H20.2816V34.9171H20.3612C20.5004 34.5392 20.7522 34.2326 21.1168 33.9973C21.4814 33.762 21.8924 33.6443 22.3498 33.6443C22.436 33.6443 22.5437 33.646 22.6729 33.6493C22.8022 33.6526 22.9 33.6576 22.9663 33.6642V34.8574C22.9265 34.8475 22.8353 34.8326 22.6928 34.8127C22.5536 34.7895 22.4061 34.7779 22.2504 34.7779C21.8791 34.7779 21.5477 34.8558 21.256 35.0115C20.9677 35.164 20.739 35.3761 20.57 35.6479C20.4042 35.9164 20.3214 36.2229 20.3214 36.5676V41.4H19.1481ZM24.3571 41.4V33.7637H25.4906V34.9171H25.5701C25.7093 34.5392 25.9612 34.2326 26.3258 33.9973C26.6904 33.762 27.1014 33.6443 27.5588 33.6443C27.6449 33.6443 27.7527 33.646 27.8819 33.6493C28.0112 33.6526 28.109 33.6576 28.1752 33.6642V34.8574C28.1355 34.8475 28.0443 34.8326 27.9018 34.8127C27.7626 34.7895 27.6151 34.7779 27.4593 34.7779C27.0881 34.7779 26.7567 34.8558 26.465 35.0115C26.1767 35.164 25.948 35.3761 25.7789 35.6479C25.6132 35.9164 25.5304 36.2229 25.5304 36.5676V41.4H24.3571ZM29.5661 41.4V33.7637H30.7393V41.4H29.5661ZM30.1626 32.4909C29.9339 32.4909 29.7367 32.413 29.571 32.2573C29.4086 32.1015 29.3274 31.9142 29.3274 31.6955C29.3274 31.4767 29.4086 31.2895 29.571 31.1337C29.7367 30.9779 29.9339 30.9 30.1626 30.9C30.3913 30.9 30.5869 30.9779 30.7493 31.1337C30.915 31.2895 30.9979 31.4767 30.9979 31.6955C30.9979 31.9142 30.915 32.1015 30.7493 32.2573C30.5869 32.413 30.3913 32.4909 30.1626 32.4909ZM34.0616 36.8063V41.4H32.8883V33.7637H34.0218V34.9568H34.1213C34.3002 34.5691 34.572 34.2575 34.9366 34.0222C35.3012 33.7835 35.7718 33.6642 36.3485 33.6642C36.8656 33.6642 37.318 33.7703 37.7058 33.9824C38.0936 34.1912 38.3952 34.5094 38.6106 34.937C38.8261 35.3612 38.9338 35.8981 38.9338 36.5478V41.4H37.7605V36.6273C37.7605 36.0274 37.6047 35.5601 37.2931 35.2253C36.9816 34.8872 36.554 34.7182 36.0105 34.7182C35.6359 34.7182 35.3012 34.7994 35.0062 34.9618C34.7145 35.1242 34.4842 35.3612 34.3152 35.6728C34.1461 35.9843 34.0616 36.3621 34.0616 36.8063ZM42.2511 36.8063V41.4H41.0778V31.2182H42.2511V34.9568H42.3505C42.5295 34.5624 42.7979 34.2492 43.1559 34.0172C43.5172 33.7819 43.9978 33.6642 44.5977 33.6642C45.118 33.6642 45.5737 33.7686 45.9648 33.9774C46.3559 34.1829 46.6592 34.4995 46.8746 34.927C47.0934 35.3513 47.2028 35.8915 47.2028 36.5478V41.4H46.0295V36.6273C46.0295 36.0208 45.872 35.5518 45.5572 35.2203C45.2456 34.8856 44.8131 34.7182 44.2596 34.7182C43.8751 34.7182 43.5304 34.7994 43.2255 34.9618C42.9239 35.1242 42.6853 35.3612 42.5096 35.6728C42.3372 35.9843 42.2511 36.3621 42.2511 36.8063ZM52.4515 41.5591C51.7621 41.5591 51.1573 41.3951 50.6369 41.0669C50.1199 40.7388 49.7155 40.2798 49.4238 39.6898C49.1355 39.0998 48.9913 38.4104 48.9913 37.6216C48.9913 36.8262 49.1355 36.1318 49.4238 35.5385C49.7155 34.9452 50.1199 34.4845 50.6369 34.1564C51.1573 33.8283 51.7621 33.6642 52.4515 33.6642C53.1409 33.6642 53.7441 33.8283 54.2612 34.1564C54.7815 34.4845 55.1859 34.9452 55.4743 35.5385C55.7659 36.1318 55.9118 36.8262 55.9118 37.6216C55.9118 38.4104 55.7659 39.0998 55.4743 39.6898C55.1859 40.2798 54.7815 40.7388 54.2612 41.0669C53.7441 41.3951 53.1409 41.5591 52.4515 41.5591ZM52.4515 40.5051C52.9752 40.5051 53.4061 40.3709 53.7441 40.1024C54.0822 39.834 54.3324 39.481 54.4949 39.0435C54.6573 38.606 54.7385 38.132 54.7385 37.6216C54.7385 37.1112 54.6573 36.6356 54.4949 36.1948C54.3324 35.754 54.0822 35.3977 53.7441 35.1259C53.4061 34.8541 52.9752 34.7182 52.4515 34.7182C51.9279 34.7182 51.497 34.8541 51.1589 35.1259C50.8208 35.3977 50.5706 35.754 50.4082 36.1948C50.2458 36.6356 50.1646 37.1112 50.1646 37.6216C50.1646 38.132 50.2458 38.606 50.4082 39.0435C50.5706 39.481 50.8208 39.834 51.1589 40.1024C51.497 40.3709 51.9279 40.5051 52.4515 40.5051Z" fill="white"/>
</svg>
