<svg width="40" height="42" viewBox="0 0 40 42" fill="none" xmlns="http://www.w3.org/2000/svg">
<path d="M10.1 8.7L20 1L29.9 8.7V20.8C29.9 21.3835 29.6682 21.9431 29.2556 22.3556C28.843 22.7682 28.2835 23 27.7 23H12.3C11.7165 23 11.1569 22.7682 10.7443 22.3556C10.3318 21.9431 10.1 21.3835 10.1 20.8V8.7Z" stroke="white" stroke-width="2" stroke-linecap="round" stroke-linejoin="round"/>
<path d="M16.7 23V12H23.3V23" stroke="white" stroke-width="2" stroke-linecap="round" stroke-linejoin="round"/>
<path d="M1.23295 39V28.8182H2.46591V33.3523H7.89489V28.8182H9.12784V39H7.89489V34.446H2.46591V39H1.23295ZM14.5394 39.1591C13.85 39.1591 13.2451 38.995 12.7248 38.6669C12.2077 38.3388 11.8034 37.8797 11.5117 37.2898C11.2234 36.6998 11.0792 36.0104 11.0792 35.2216C11.0792 34.4261 11.2234 33.7318 11.5117 33.1385C11.8034 32.5452 12.2077 32.0845 12.7248 31.7564C13.2451 31.4283 13.85 31.2642 14.5394 31.2642C15.2288 31.2642 15.832 31.4283 16.3491 31.7564C16.8694 32.0845 17.2738 32.5452 17.5621 33.1385C17.8538 33.7318 17.9996 34.4261 17.9996 35.2216C17.9996 36.0104 17.8538 36.6998 17.5621 37.2898C17.2738 37.8797 16.8694 38.3388 16.3491 38.6669C15.832 38.995 15.2288 39.1591 14.5394 39.1591ZM14.5394 38.1051C15.0631 38.1051 15.494 37.9709 15.832 37.7024C16.1701 37.4339 16.4203 37.081 16.5827 36.6435C16.7451 36.206 16.8263 35.732 16.8263 35.2216C16.8263 34.7112 16.7451 34.2356 16.5827 33.7947C16.4203 33.3539 16.1701 32.9976 15.832 32.7259C15.494 32.4541 15.0631 32.3182 14.5394 32.3182C14.0157 32.3182 13.5849 32.4541 13.2468 32.7259C12.9087 32.9976 12.6585 33.3539 12.4961 33.7947C12.3337 34.2356 12.2525 34.7112 12.2525 35.2216C12.2525 35.732 12.3337 36.206 12.4961 36.6435C12.6585 37.081 12.9087 37.4339 13.2468 37.7024C13.5849 37.9709 14.0157 38.1051 14.5394 38.1051ZM19.7907 39V31.3636H20.9242V32.5568H21.0236C21.1827 32.1491 21.4396 31.8326 21.7942 31.6072C22.1489 31.3786 22.5748 31.2642 23.0719 31.2642C23.5757 31.2642 23.995 31.3786 24.3297 31.6072C24.6678 31.8326 24.9313 32.1491 25.1202 32.5568H25.1998C25.3953 32.1624 25.6886 31.8492 26.0797 31.6172C26.4708 31.3819 26.9398 31.2642 27.4867 31.2642C28.1694 31.2642 28.7279 31.478 29.1621 31.9055C29.5963 32.3298 29.8134 32.991 29.8134 33.8892V39H28.6401V33.8892C28.6401 33.3258 28.486 32.9231 28.1777 32.6811C27.8695 32.4392 27.5066 32.3182 27.089 32.3182C26.552 32.3182 26.1361 32.4806 25.8411 32.8054C25.5461 33.1269 25.3986 33.5346 25.3986 34.0284V39H24.2054V33.7699C24.2054 33.3357 24.0646 32.986 23.7828 32.7209C23.5011 32.4524 23.1382 32.3182 22.6941 32.3182C22.3891 32.3182 22.1041 32.3994 21.839 32.5618C21.5771 32.7242 21.365 32.9496 21.2026 33.2379C21.0435 33.523 20.964 33.8527 20.964 34.2273V39H19.7907ZM35.1603 39.1591C34.4245 39.1591 33.7898 38.9967 33.2562 38.6719C32.7259 38.3438 32.3166 37.8864 32.0282 37.2997C31.7432 36.7098 31.6007 36.0237 31.6007 35.2415C31.6007 34.4593 31.7432 33.7699 32.0282 33.1733C32.3166 32.5734 32.7176 32.1061 33.2314 31.7713C33.7484 31.4332 34.3516 31.2642 35.041 31.2642C35.4387 31.2642 35.8315 31.3305 36.2193 31.4631C36.6071 31.5956 36.9601 31.8111 37.2782 32.1094C37.5964 32.4044 37.85 32.7955 38.0389 33.2827C38.2278 33.7699 38.3223 34.3698 38.3223 35.0824V35.5795H32.4359V34.5653H37.1291C37.1291 34.1345 37.0429 33.75 36.8706 33.4119C36.7015 33.0739 36.4596 32.8071 36.1447 32.6115C35.8332 32.416 35.4653 32.3182 35.041 32.3182C34.5737 32.3182 34.1693 32.4342 33.8279 32.6662C33.4899 32.8949 33.2297 33.1932 33.0474 33.5611C32.8651 33.929 32.774 34.3234 32.774 34.7443V35.4205C32.774 35.9972 32.8734 36.486 33.0723 36.8871C33.2744 37.2848 33.5545 37.5881 33.9125 37.7969C34.2704 38.0024 34.6864 38.1051 35.1603 38.1051C35.4686 38.1051 35.747 38.062 35.9956 37.9759C36.2475 37.8864 36.4645 37.7538 36.6468 37.5781C36.8291 37.3991 36.97 37.1771 37.0694 36.9119L38.2029 37.2301C38.0836 37.6146 37.8831 37.9527 37.6014 38.2443C37.3197 38.5327 36.9717 38.758 36.5574 38.9205C36.1431 39.0795 35.6774 39.1591 35.1603 39.1591Z" fill="white"/>
</svg>
