<svg width="24" height="25" viewBox="0 0 24 25" fill="none" xmlns="http://www.w3.org/2000/svg">
<path d="M15.4501 10.5687C15.6001 10.7187 15.8251 10.7937 15.9751 10.7937C16.1251 10.7937 16.3501 10.7187 16.5001 10.5687L20.5501 6.51865C20.8501 6.21865 20.8501 5.76865 20.5501 5.46865C20.2501 5.16865 19.8001 5.16865 19.5001 5.46865L15.4501 9.51865C15.1501 9.81865 15.1501 10.2687 15.4501 10.5687Z" fill="white"/>
<path d="M22.575 8.54375C22.875 8.24375 22.875 7.79375 22.575 7.49375C22.275 7.19375 21.825 7.19375 21.525 7.49375L17.85 11.1688C16.875 12.1438 15.975 12.6688 15.075 12.6688C14.925 12.6688 14.7 12.6688 14.55 12.7438L13.275 11.4688C13.275 11.3188 13.35 11.0938 13.35 10.9438C13.425 10.1188 13.95 9.14375 14.85 8.16875L18.525 4.49375C18.825 4.19375 18.825 3.74375 18.525 3.44375C18.225 3.14375 17.775 3.14375 17.475 3.44375L13.8 7.11875C12.825 8.09375 12.225 9.14375 11.925 10.1188L5.4 3.59375C5.1 3.29375 4.65 3.29375 4.35 3.59375C2.175 5.76875 2.175 9.36875 4.35 11.6188L10.575 17.8438C10.8 18.0688 11.1 18.1438 11.4 17.9938C12.225 17.6188 13.2 17.8438 13.8 18.5938L16.875 22.4188C17.325 23.0188 18 23.3188 18.75 23.3938C18.825 23.3938 18.825 23.3938 18.9 23.3938C19.575 23.3938 20.25 23.0938 20.775 22.6438C21.3 22.1188 21.525 21.5188 21.525 20.7688C21.525 20.0188 21.225 19.4188 20.775 18.8938L15.9 14.0188C16.875 13.7938 17.925 13.1938 18.9 12.1438L22.575 8.54375Z" fill="white"/>
<path d="M3.52506 19.1187C3.00006 19.5687 2.62506 20.1687 2.55006 20.8437C2.47506 21.5187 2.77506 22.1937 3.22506 22.7187C3.67506 23.2437 4.27506 23.4687 4.95006 23.4687C5.02506 23.4687 5.10006 23.4687 5.10006 23.4687C5.77506 23.3937 6.45006 23.0937 6.82506 22.5687L9.60006 19.1187L6.90006 16.4187L3.52506 19.1187Z" fill="white"/>
</svg>
