<svg width="54" height="46" viewBox="0 0 54 46" fill="none" xmlns="http://www.w3.org/2000/svg">
<path d="M29.4 1H19.8C19.1635 1 18.5531 1.25286 18.103 1.70294C17.6529 2.15303 17.4 2.76348 17.4 3.4V22.6C17.4 23.2365 17.6529 23.847 18.103 24.2971C18.5531 24.7471 19.1635 25 19.8 25H34.2C34.8365 25 35.447 24.7471 35.8971 24.2971C36.3472 23.847 36.6 23.2365 36.6 22.6V8.2L29.4 1Z" stroke="white" stroke-width="2" stroke-linecap="round" stroke-linejoin="round"/>
<path d="M29.4 1V8.2H36.6" stroke="white" stroke-width="2" stroke-linecap="round" stroke-linejoin="round"/>
<path d="M31.8 14.2H22.2" stroke="white" stroke-width="2" stroke-linecap="round" stroke-linejoin="round"/>
<path d="M31.8 19H22.2" stroke="white" stroke-width="2" stroke-linecap="round" stroke-linejoin="round"/>
<path d="M24.6 9.40002H23.4H22.2" stroke="white" stroke-width="2" stroke-linecap="round" stroke-linejoin="round"/>
<path d="M1.23295 43V32.8182H4.6733C5.47206 32.8182 6.125 32.9624 6.6321 33.2507C7.14252 33.5357 7.52036 33.9219 7.76562 34.4091C8.01089 34.8963 8.13352 35.4399 8.13352 36.0398C8.13352 36.6397 8.01089 37.1849 7.76562 37.6754C7.52367 38.166 7.14915 38.5571 6.64205 38.8487C6.13494 39.1371 5.48532 39.2812 4.69318 39.2812H2.22727V38.1875H4.65341C5.20028 38.1875 5.63944 38.093 5.97088 37.9041C6.30232 37.7152 6.54261 37.46 6.69176 37.1385C6.84422 36.8137 6.92045 36.4474 6.92045 36.0398C6.92045 35.6321 6.84422 35.2675 6.69176 34.946C6.54261 34.6245 6.30066 34.3726 5.96591 34.1903C5.63116 34.0047 5.18703 33.9119 4.63352 33.9119H2.46591V43H1.23295ZM13.0803 43.1591C12.3445 43.1591 11.7098 42.9967 11.1761 42.6719C10.6458 42.3438 10.2365 41.8864 9.94815 41.2997C9.66312 40.7098 9.5206 40.0237 9.5206 39.2415C9.5206 38.4593 9.66312 37.7699 9.94815 37.1733C10.2365 36.5734 10.6375 36.1061 11.1513 35.7713C11.6683 35.4332 12.2715 35.2642 12.9609 35.2642C13.3587 35.2642 13.7514 35.3305 14.1392 35.4631C14.527 35.5956 14.88 35.8111 15.1982 36.1094C15.5163 36.4044 15.7699 36.7955 15.9588 37.2827C16.1477 37.7699 16.2422 38.3698 16.2422 39.0824V39.5795H10.3558V38.5653H15.049C15.049 38.1345 14.9628 37.75 14.7905 37.4119C14.6214 37.0739 14.3795 36.8071 14.0646 36.6115C13.7531 36.416 13.3852 36.3182 12.9609 36.3182C12.4936 36.3182 12.0893 36.4342 11.7479 36.6662C11.4098 36.8949 11.1496 37.1932 10.9673 37.5611C10.785 37.929 10.6939 38.3234 10.6939 38.7443V39.4205C10.6939 39.9972 10.7933 40.486 10.9922 40.8871C11.1944 41.2848 11.4744 41.5881 11.8324 41.7969C12.1903 42.0024 12.6063 42.1051 13.0803 42.1051C13.3885 42.1051 13.6669 42.062 13.9155 41.9759C14.1674 41.8864 14.3845 41.7538 14.5668 41.5781C14.7491 41.3991 14.8899 41.1771 14.9893 40.9119L16.1229 41.2301C16.0036 41.6146 15.803 41.9527 15.5213 42.2443C15.2396 42.5327 14.8916 42.758 14.4773 42.9205C14.063 43.0795 13.5973 43.1591 13.0803 43.1591ZM20.9105 43.1591C20.2741 43.1591 19.7124 42.9983 19.2251 42.6768C18.7379 42.352 18.3568 41.8946 18.0817 41.3047C17.8066 40.7114 17.669 40.0104 17.669 39.2017C17.669 38.3996 17.8066 37.7036 18.0817 37.1136C18.3568 36.5237 18.7396 36.0679 19.2301 35.7464C19.7206 35.425 20.2874 35.2642 20.9304 35.2642C21.4276 35.2642 21.8203 35.3471 22.1087 35.5128C22.4003 35.6752 22.6224 35.8608 22.7749 36.0696C22.9306 36.2751 23.0516 36.4441 23.1378 36.5767H23.2372V32.8182H24.4105V43H23.277V41.8267H23.1378C23.0516 41.9659 22.929 42.1416 22.7699 42.3537C22.6108 42.5625 22.3838 42.7498 22.0888 42.9155C21.7938 43.0779 21.401 43.1591 20.9105 43.1591ZM21.0696 42.1051C21.5402 42.1051 21.938 41.9825 22.2628 41.7372C22.5876 41.4886 22.8345 41.1456 23.0036 40.7081C23.1726 40.2673 23.2571 39.7585 23.2571 39.1818C23.2571 38.6117 23.1742 38.1129 23.0085 37.6854C22.8428 37.2545 22.5975 36.9197 22.2727 36.6811C21.9479 36.4392 21.5469 36.3182 21.0696 36.3182C20.5724 36.3182 20.1581 36.4458 19.8267 36.701C19.4986 36.9529 19.2517 37.2959 19.0859 37.7301C18.9235 38.161 18.8423 38.6449 18.8423 39.1818C18.8423 39.7254 18.9252 40.2192 19.0909 40.6634C19.2599 41.1042 19.5085 41.4555 19.8366 41.7173C20.1681 41.9759 20.5791 42.1051 21.0696 42.1051ZM26.7223 43V35.3636H27.8956V43H26.7223ZM27.3189 34.0909C27.0902 34.0909 26.893 34.013 26.7273 33.8572C26.5649 33.7015 26.4837 33.5142 26.4837 33.2955C26.4837 33.0767 26.5649 32.8894 26.7273 32.7337C26.893 32.5779 27.0902 32.5 27.3189 32.5C27.5476 32.5 27.7431 32.5779 27.9055 32.7337C28.0713 32.8894 28.1541 33.0767 28.1541 33.2955C28.1541 33.5142 28.0713 33.7015 27.9055 33.8572C27.7431 34.013 27.5476 34.0909 27.3189 34.0909ZM32.9281 43.1591C32.2917 43.1591 31.7299 42.9983 31.2427 42.6768C30.7555 42.352 30.3743 41.8946 30.0993 41.3047C29.8242 40.7114 29.6866 40.0104 29.6866 39.2017C29.6866 38.3996 29.8242 37.7036 30.0993 37.1136C30.3743 36.5237 30.7572 36.0679 31.2477 35.7464C31.7382 35.425 32.305 35.2642 32.948 35.2642C33.4451 35.2642 33.8379 35.3471 34.1262 35.5128C34.4179 35.6752 34.64 35.8608 34.7924 36.0696C34.9482 36.2751 35.0692 36.4441 35.1554 36.5767H35.2548V32.8182H36.4281V43H35.2946V41.8267H35.1554C35.0692 41.9659 34.9466 42.1416 34.7875 42.3537C34.6284 42.5625 34.4013 42.7498 34.1064 42.9155C33.8114 43.0779 33.4186 43.1591 32.9281 43.1591ZM33.0872 42.1051C33.5578 42.1051 33.9556 41.9825 34.2804 41.7372C34.6052 41.4886 34.8521 41.1456 35.0211 40.7081C35.1902 40.2673 35.2747 39.7585 35.2747 39.1818C35.2747 38.6117 35.1918 38.1129 35.0261 37.6854C34.8604 37.2545 34.6151 36.9197 34.2903 36.6811C33.9655 36.4392 33.5645 36.3182 33.0872 36.3182C32.59 36.3182 32.1757 36.4458 31.8443 36.701C31.5162 36.9529 31.2692 37.2959 31.1035 37.7301C30.9411 38.161 30.8599 38.6449 30.8599 39.1818C30.8599 39.7254 30.9428 40.2192 31.1085 40.6634C31.2775 41.1042 31.5261 41.4555 31.8542 41.7173C32.1857 41.9759 32.5967 42.1051 33.0872 42.1051ZM41.8422 43.1591C41.1528 43.1591 40.5479 42.995 40.0275 42.6669C39.5105 42.3388 39.1061 41.8797 38.8145 41.2898C38.5261 40.6998 38.3819 40.0104 38.3819 39.2216C38.3819 38.4261 38.5261 37.7318 38.8145 37.1385C39.1061 36.5452 39.5105 36.0845 40.0275 35.7564C40.5479 35.4283 41.1528 35.2642 41.8422 35.2642C42.5315 35.2642 43.1348 35.4283 43.6518 35.7564C44.1722 36.0845 44.5765 36.5452 44.8649 37.1385C45.1565 37.7318 45.3024 38.4261 45.3024 39.2216C45.3024 40.0104 45.1565 40.6998 44.8649 41.2898C44.5765 41.8797 44.1722 42.3388 43.6518 42.6669C43.1348 42.995 42.5315 43.1591 41.8422 43.1591ZM41.8422 42.1051C42.3658 42.1051 42.7967 41.9709 43.1348 41.7024C43.4728 41.4339 43.7231 41.081 43.8855 40.6435C44.0479 40.206 44.1291 39.732 44.1291 39.2216C44.1291 38.7112 44.0479 38.2356 43.8855 37.7947C43.7231 37.3539 43.4728 36.9976 43.1348 36.7259C42.7967 36.4541 42.3658 36.3182 41.8422 36.3182C41.3185 36.3182 40.8876 36.4541 40.5495 36.7259C40.2115 36.9976 39.9612 37.3539 39.7988 37.7947C39.6364 38.2356 39.5552 38.7112 39.5552 39.2216C39.5552 39.732 39.6364 40.206 39.7988 40.6435C39.9612 41.081 40.2115 41.4339 40.5495 41.7024C40.8876 41.9709 41.3185 42.1051 41.8422 42.1051ZM52.5025 37.0739L51.4485 37.3722C51.3822 37.1965 51.2844 37.0258 51.1552 36.8601C51.0292 36.6911 50.8569 36.5518 50.6381 36.4425C50.4194 36.3331 50.1393 36.2784 49.7979 36.2784C49.3306 36.2784 48.9412 36.3861 48.6296 36.6016C48.3214 36.8137 48.1673 37.0838 48.1673 37.4119C48.1673 37.7036 48.2733 37.9339 48.4854 38.103C48.6976 38.272 49.029 38.4129 49.4798 38.5256L50.6133 38.804C51.296 38.9697 51.8048 39.2232 52.1396 39.5646C52.4743 39.9027 52.6417 40.3385 52.6417 40.8722C52.6417 41.3097 52.5157 41.7008 52.2638 42.0455C52.0153 42.3902 51.6673 42.6619 51.2198 42.8608C50.7724 43.0597 50.252 43.1591 49.6587 43.1591C48.8799 43.1591 48.2352 42.9901 47.7248 42.652C47.2144 42.3139 46.8912 41.8201 46.7553 41.1705L47.869 40.892C47.975 41.303 48.1755 41.6113 48.4705 41.8168C48.7688 42.0223 49.1583 42.125 49.6388 42.125C50.1857 42.125 50.6199 42.009 50.9414 41.777C51.2662 41.5417 51.4286 41.2599 51.4286 40.9318C51.4286 40.6667 51.3358 40.4446 51.1502 40.2656C50.9646 40.0833 50.6796 39.9474 50.2951 39.858L49.0224 39.5597C48.323 39.3939 47.8093 39.1371 47.4812 38.7891C47.1564 38.4377 46.994 37.9986 46.994 37.4716C46.994 37.0407 47.1149 36.6596 47.3569 36.3281C47.6022 35.9967 47.9353 35.7365 48.3562 35.5476C48.7804 35.3587 49.261 35.2642 49.7979 35.2642C50.5536 35.2642 51.1469 35.4299 51.5778 35.7614C52.012 36.0928 52.3202 36.5303 52.5025 37.0739Z" fill="white"/>
</svg>
